<?xml version="1.0" encoding="UTF-8" standalone="no"?>
<!-- Created with Inkscape (http://www.inkscape.org/) -->

<svg
   version="1.1"
   id="svg48"
   width="2561.3333"
   height="2561.3333"
   viewBox="0 0 2561.3333 2561.3333"
   sodipodi:docname="logo.ai"
   xmlns:inkscape="http://www.inkscape.org/namespaces/inkscape"
   xmlns:sodipodi="http://sodipodi.sourceforge.net/DTD/sodipodi-0.dtd"
   xmlns="http://www.w3.org/2000/svg"
   xmlns:svg="http://www.w3.org/2000/svg">
  <defs
     id="defs52">
    <clipPath
       clipPathUnits="userSpaceOnUse"
       id="clipPath64">
      <path
         d="M 0,1921 H 1921 V 0 H 0 Z"
         id="path62" />
    </clipPath>
  </defs>
  <sodipodi:namedview
     id="namedview50"
     pagecolor="#ffffff"
     bordercolor="#000000"
     borderopacity="0.25"
     inkscape:showpageshadow="2"
     inkscape:pageopacity="0.0"
     inkscape:pagecheckerboard="0"
     inkscape:deskcolor="#d1d1d1"
     showgrid="false" />
  <g
     id="g56"
     inkscape:groupmode="layer"
     inkscape:label="Page 1"
     transform="matrix(1.3333333,0,0,-1.3333333,0,2561.3333)">
    <g
       id="g58"
       transform="matrix(3.3621202,0,0,3.2221783,-2273.5675,-2206.8938)"
       style="fill:#ffffff">
      <g
         id="g60"
         clip-path="url(#clipPath64)"
         style="fill:#ffffff">
        <g
           id="g66"
           transform="translate(1111.0156,940.9434)"
           style="fill:#ffffff">
          <path
             d="M 0,0 V -15.42 -27.413 -40.969 H -155.873 V -27.413 -15.42 0 11.994 26.272 34.113 h -133.682 v -75.082 h -69.685 c 8.168,-20.126 19.138,-38.83 32.405,-55.589 l 101.711,50.431 13.361,-7.558 24.233,-13.707 21.203,-11.993 25.242,-14.278 21.203,-11.993 27.261,-15.42 10.874,-6.152 11.408,6.152 28.598,15.42 22.244,11.993 26.479,14.278 22.244,11.993 23.493,12.667 c 0.167,0.345 0.323,0.696 0.488,1.04 1.887,3.936 3.658,7.936 5.321,11.994 1.921,4.683 3.696,9.443 5.308,14.278 1.317,3.95 2.524,7.95 3.628,11.993 1.385,5.072 2.607,10.213 3.644,15.42 0.789,3.962 1.472,7.961 2.054,11.994 0.68,4.714 1.212,9.475 1.599,14.278 0.21,2.603 0.392,5.214 0.514,7.841 L 0,34.113 V 26.272 11.994 Z"
             style="fill:#ffffff;fill-opacity:1;fill-rule:nonzero;stroke:none"
             id="path68" />
        </g>
        <g
           id="g70"
           transform="translate(969.1523,940.9434)"
           style="fill:#ffffff">
          <path
             d="M 0,0 V -15.42 -26.874 H 127.854 V -15.42 0 11.994 26.272 38.265 48.208 h 89.494 c -0.021,1.449 -0.063,2.893 -0.111,4.335 -0.133,4.025 -0.371,8.024 -0.71,11.994 -0.409,4.802 -0.961,9.565 -1.664,14.277 -0.6,4.036 -1.318,8.032 -2.128,11.994 -1.063,5.208 -2.301,10.35 -3.713,15.42 -1.126,4.045 -2.358,8.044 -3.697,11.994 -0.919,2.712 -1.88,5.405 -2.897,8.07 -9.329,-1.606 -18.013,-4.569 -25.771,-8.07 -8.224,-3.712 -15.401,-8.026 -21.174,-11.994 -9.668,-6.645 -15.411,-12.301 -15.553,-12.438 -1.026,-1.016 -2.047,-2.005 -3.067,-2.982 -4.577,-4.386 -9.094,-8.383 -13.562,-11.994 -7.103,-5.739 -14.079,-10.498 -20.968,-14.277 -26.564,-14.574 -51.83,-14.575 -78.049,0 -6.797,3.778 -13.659,8.541 -20.623,14.277 -4.386,3.613 -8.811,7.606 -13.288,11.994 -0.764,0.749 -1.529,1.506 -2.295,2.277 -4.882,4.911 -9.911,9.289 -15.055,13.143 -6.441,4.826 -13.067,8.823 -19.823,11.994 -19.663,9.228 -40.43,11.458 -60.977,6.694 -19.889,-4.613 -39.568,-15.771 -57.833,-33.466 -26.129,-25.3 -47.592,-37.929 -68.369,-39.944 -0.055,-2.213 -0.097,-4.425 -0.097,-6.653 0,-25.06 4.048,-49.175 11.502,-71.727 h 60.872 v 75.082 h 41.219 L 0,48.208 V 38.265 26.272 11.994 Z"
             style="fill:#ffffff;fill-opacity:1;fill-rule:nonzero;stroke:none"
             id="path72" />
        </g>
        <g
           id="g74"
           transform="translate(1098.9395,835.2871)"
           style="fill:#ffffff">
          <path
             d="m 0,0 -28.597,-15.42 -22.242,-11.993 -18.986,-10.238 -18.102,10.238 -21.204,11.993 -27.263,15.42 -21.204,11.993 -25.243,14.278 -21.204,11.994 -9.437,5.338 -5.518,-2.736 -86.415,-42.846 c 41.301,-45.821 100.955,-74.618 167.292,-74.618 24.566,0 48.213,3.955 70.352,11.255 9.832,3.242 19.364,7.146 28.548,11.657 7.361,3.616 14.496,7.622 21.381,11.994 6.931,4.399 13.606,9.168 20,14.278 4.77,3.811 9.384,7.812 13.829,11.993 5.211,4.901 10.194,10.046 14.925,15.42 3.416,3.881 6.699,7.883 9.849,11.993 3.541,4.622 6.909,9.385 10.094,14.278 0.384,0.59 0.771,1.177 1.149,1.771 L 48.721,26.271 22.242,11.993 Z"
             style="fill:#ffffff;fill-opacity:1;fill-rule:nonzero;stroke:none"
             id="path76" />
        </g>
        <g
           id="g78"
           transform="translate(963.8721,1047.1714)"
           style="fill:#ffffff">
          <path
             d="m 0,0 c 1.094,-1.039 2.184,-2.093 3.263,-3.178 4.49,-4.517 8.889,-8.594 13.217,-12.242 5.61,-4.727 11.1,-8.726 16.507,-11.994 24.18,-14.606 46.745,-14.609 71.286,0 5.489,3.268 11.075,7.265 16.8,11.994 4.664,3.852 9.418,8.18 14.287,13.003 0.212,0.21 1.097,1.081 2.579,2.417 2.923,2.636 8.202,7.1 15.364,11.994 7.016,4.795 15.838,9.991 26.034,14.277 7.002,2.945 14.643,5.461 22.795,7.112 -0.749,1.638 -1.518,3.265 -2.304,4.882 -2.266,4.663 -4.696,9.231 -7.264,13.707 -2.34,4.08 -4.803,8.079 -7.384,11.993 -3.229,4.897 -6.643,9.658 -10.229,14.278 -3.192,4.113 -6.519,8.114 -9.98,11.994 -4.604,5.159 -9.43,10.114 -14.48,14.831 L 117.023,90.237 89.959,78.243 57.74,63.965 30.676,51.972 -0.254,38.265 -9.108,34.341 v 3.924 13.707 11.993 14.278 11.994 15.42 4.654 c -3.47,-1.255 -7.816,-2.827 -12.872,-4.654 -10.114,-3.656 -23.088,-8.344 -37.687,-13.617 -32.44,-11.718 -72.882,-26.319 -107.71,-38.882 -13.828,-4.99 -26.772,-9.655 -37.98,-13.686 -12.063,-24.454 -19.88,-51.403 -22.472,-79.888 16.84,2.424 35.066,13.784 57.776,35.8 40.139,38.886 87.964,49.21 130.892,30.887 8.514,-3.633 16.836,-8.388 24.867,-14.277 C -9.414,8.415 -4.643,4.413 0,0"
             style="fill:#ffffff;fill-opacity:1;fill-rule:nonzero;stroke:none"
             id="path80" />
        </g>
        <g
           id="g82"
           transform="translate(968.7734,1125.4146)"
           style="fill:#ffffff">
          <path
             d="m 0,0 v -14.278 -8.017 L 18.088,-14.278 50.302,0 77.36,11.994 l 34.791,15.42 1.82,0.806 19.907,8.823 c -0.981,0.798 -1.973,1.582 -2.967,2.364 -6.511,5.12 -13.306,9.89 -20.36,14.278 -7.057,4.39 -14.375,8.393 -21.92,11.994 -14.605,6.97 -30.068,12.409 -46.191,16.111 -16.206,3.721 -33.072,5.697 -50.397,5.697 -81.075,0 -152.147,-43.002 -191.948,-107.555 34.506,12.417 79.463,28.654 117.051,42.228 18.371,6.635 34.969,12.634 47.73,17.247 13.341,4.822 22.488,8.131 25.038,9.052 L 0,52.096 V 39.407 27.414 11.994 Z"
             style="fill:#ffffff;fill-opacity:1;fill-rule:nonzero;stroke:none"
             id="path84" />
        </g>
      </g>
    </g>
  </g>
</svg>
